<svg width="128" height="128" fill="none" xmlns="http://www.w3.org/2000/svg"><circle cx="64" cy="64" r="64" fill="#81B441"/><path d="M83.03 33.47c-1.807-.994-6.983-.377-13.203 1.528-10.883 7.364-20.072 18.214-20.713 35.637-.114.416-1.189-.061-1.404-.187-2.938-5.575-4.105-11.445-1.649-19.915.456-.756-1.04-1.685-1.307-1.42-.535.53-2.781 2.9-4.277 5.458-7.395 12.69-2.557 28.958 10.379 36.079a27 27 0 009.955 3.174c3.497.4 7.04.116 10.425-.838a26.91 26.91 0 009.308-4.724 26.605 26.605 0 006.772-7.89c8.334-14.77.597-44.201-4.285-46.902z" fill="#fff"/></svg>